<svg xmlns="http://www.w3.org/2000/svg" width="24" height="24" viewBox="0 0 24 24" fill="white"><path d="M 2.324219 3.484375 C 1.039062 3.484375 0 4.523438 0 5.804688 C 0 7.089844 1.039062 8.128906 2.324219 8.128906 C 3.605469 8.128906 4.644531 7.089844 4.644531 5.804688 C 4.644531 4.523438 3.605469 3.484375 2.324219 3.484375 Z M 2.324219 9.675781 C 1.039062 9.675781 0 10.71875 0 12 C 0 13.28125 1.039062 14.324219 2.324219 14.324219 C 3.605469 14.324219 4.644531 13.28125 4.644531 12 C 4.644531 10.71875 3.605469 9.675781 2.324219 9.675781 Z M 2.324219 15.871094 C 1.039062 15.871094 0 16.910156 0 18.195312 C 0 19.476562 1.039062 20.515625 2.324219 20.515625 C 3.605469 20.515625 4.644531 19.476562 4.644531 18.195312 C 4.644531 16.910156 3.605469 15.871094 2.324219 15.871094 Z M 7.742188 7.355469 L 22.453125 7.355469 C 23.308594 7.355469 24 6.660156 24 5.804688 C 24 4.949219 23.308594 4.257812 22.453125 4.257812 L 7.742188 4.257812 C 6.886719 4.257812 6.195312 4.949219 6.195312 5.804688 C 6.195312 6.660156 6.886719 7.355469 7.742188 7.355469 Z M 22.453125 10.453125 L 7.742188 10.453125 C 6.886719 10.453125 6.195312 11.144531 6.195312 12 C 6.195312 12.855469 6.886719 13.546875 7.742188 13.546875 L 22.453125 13.546875 C 23.308594 13.546875 24 12.855469 24 12 C 24 11.144531 23.308594 10.453125 22.453125 10.453125 Z M 22.453125 16.644531 L 7.742188 16.644531 C 6.886719 16.644531 6.195312 17.339844 6.195312 18.195312 C 6.195312 19.050781 6.886719 19.742188 7.742188 19.742188 L 22.453125 19.742188 C 23.308594 19.742188 24 19.050781 24 18.195312 C 24 17.339844 23.308594 16.644531 22.453125 16.644531 Z M 22.453125 16.644531 "></path></svg>